<?xml version="1.0" encoding="utf-8"?>
<!-- Svg Vector Icons : http://www.onlinewebfonts.com/icon -->
<!DOCTYPE svg PUBLIC "-//W3C//DTD SVG 1.1//EN" "http://www.w3.org/Graphics/SVG/1.1/DTD/svg11.dtd">
<svg version="1.1" xmlns="http://www.w3.org/2000/svg" xmlns:xlink="http://www.w3.org/1999/xlink" x="0px" y="0px" viewBox="0 0 1000 1000" enable-background="new 0 0 1000 1000" xml:space="preserve">
<metadata> Svg Vector Icons : http://www.onlinewebfonts.com/icon </metadata>
<g><g transform="translate(0.000000,502.000000) scale(0.100000,-0.100000)"><path d="M4755.8,4903.9c-660.2-84-1246.2-498.1-1543.1-1089.9c-148.5-296.9-187.5-474.6-199.2-914.1l-9.8-377h-789.1h-787.2l-11.7-62.5c-15.6-97.7-830.1-7244.6-830.1-7295.4v-44.9H5000h4414.4v44.9c0,50.8-814.5,7197.8-830.1,7295.4l-11.7,62.5h-787.2h-789.1l-9.8,377c-9.8,377-27.3,484.4-117.2,728.6c-212.9,578.2-736.4,1052.8-1341.9,1216.9C5255.9,4919.5,5017.6,4937.1,4755.8,4903.9z M5322.3,4485.9c496.1-105.5,900.4-425.8,1119.2-884.8c117.2-246.1,160.2-464.9,160.2-808.7v-269.6H5000H3398.3v269.6c0,343.8,43,562.5,160.2,808.7c216.8,455.1,621.1,777.4,1111.4,884.8C4835.9,4521.1,5152.4,4521.1,5322.3,4485.9z M3007.7,1892v-220.7l-58.6-43c-168-125-191.4-398.5-46.9-566.4c234.4-275.4,691.5-107.4,691.5,253.9c0,121.1-35.2,207-125,293l-70.3,68.4v218.8v216.8H5000h1601.7v-216.8v-218.8l-70.3-68.4c-89.9-86-125-171.9-125-293c0-361.4,457.1-529.3,691.5-253.9c144.5,168,121.1,441.4-46.9,566.4l-58.6,43V1892v220.7h613.3H8219l11.7-82c27.3-193.4,734.4-6414.5,734.4-6465.3v-54.7H5000H1034.9v54.7c0,50.8,707.1,6271.9,734.4,6465.3l11.7,82h613.3h613.3V1892z"/></g></g>
</svg>